<svg width="23" height="23" viewBox="0 0 23 23" fill="none" xmlns="http://www.w3.org/2000/svg">
<path d="M19.7297 10.8603L3.91718 2.95408C3.79325 2.8921 3.65404 2.86727 3.51632 2.88257C3.3786 2.89787 3.24824 2.95266 3.14093 3.04033C3.03845 3.12622 2.96197 3.23899 2.92007 3.36596C2.87816 3.49293 2.87251 3.62907 2.90374 3.75908L4.80843 10.7813H12.9375V12.2188H4.80843L2.87499 19.2194C2.84569 19.328 2.84227 19.4419 2.86501 19.552C2.88774 19.6622 2.93601 19.7654 3.00592 19.8535C3.07583 19.9416 3.16543 20.0121 3.26753 20.0592C3.36962 20.1064 3.48135 20.1289 3.59374 20.125C3.70626 20.1243 3.81704 20.0973 3.91718 20.046L19.7297 12.1397C19.8474 12.0794 19.9462 11.9878 20.0152 11.8749C20.0842 11.762 20.1207 11.6323 20.1207 11.5C20.1207 11.3677 20.0842 11.238 20.0152 11.1252C19.9462 11.0123 19.8474 10.9206 19.7297 10.8603Z"/>
</svg>
