<svg width="20" height="20" viewBox="0 0 20 20" fill="none" xmlns="http://www.w3.org/2000/svg">
<path d="M10 1.66669C5.40002 1.66669 1.66669 5.40002 1.66669 10C1.66669 14.6 5.40002 18.3334 10 18.3334C14.6 18.3334 18.3334 14.6 18.3334 10C18.3334 5.40002 14.6 1.66669 10 1.66669ZM9.16669 16.6084C5.87502 16.2 3.33335 13.4 3.33335 10C3.33335 9.48335 3.40002 8.99169 3.50835 8.50835L7.50002 12.5V13.3334C7.50002 14.25 8.25002 15 9.16669 15V16.6084ZM14.9167 14.4917C14.7 13.8167 14.0834 13.3334 13.3334 13.3334H12.5V10.8334C12.5 10.375 12.125 10 11.6667 10H6.66669V8.33335H8.33335C8.79169 8.33335 9.16669 7.95835 9.16669 7.50002V5.83335H10.8334C11.75 5.83335 12.5 5.08335 12.5 4.16669V3.82502C14.9417 4.81669 16.6667 7.20835 16.6667 10C16.6667 11.7334 16 13.3084 14.9167 14.4917Z" />
<path d="M10 1.66669C5.40002 1.66669 1.66669 5.40002 1.66669 10C1.66669 14.6 5.40002 18.3334 10 18.3334C14.6 18.3334 18.3334 14.6 18.3334 10C18.3334 5.40002 14.6 1.66669 10 1.66669ZM9.16669 16.6084C5.87502 16.2 3.33335 13.4 3.33335 10C3.33335 9.48335 3.40002 8.99169 3.50835 8.50835L7.50002 12.5V13.3334C7.50002 14.25 8.25002 15 9.16669 15V16.6084ZM14.9167 14.4917C14.7 13.8167 14.0834 13.3334 13.3334 13.3334H12.5V10.8334C12.5 10.375 12.125 10 11.6667 10H6.66669V8.33335H8.33335C8.79169 8.33335 9.16669 7.95835 9.16669 7.50002V5.83335H10.8334C11.75 5.83335 12.5 5.08335 12.5 4.16669V3.82502C14.9417 4.81669 16.6667 7.20835 16.6667 10C16.6667 11.7334 16 13.3084 14.9167 14.4917Z" />
</svg>
